<mxfile host="Electron" modified="2024-04-22T06:47:45.056Z" agent="Mozilla/5.0 (X11; Linux x86_64) AppleWebKit/537.36 (KHTML, like Gecko) draw.io/24.2.5 Chrome/120.0.6099.109 Electron/28.1.0 Safari/537.36" etag="k3gFKWkThMnNaQ3dXPaw" version="24.2.5" type="device">
  <diagram id="PvZe2rQdpgl4ulF8Twd2" name="Page-1">
    <mxGraphModel dx="1234" dy="870" grid="1" gridSize="10" guides="1" tooltips="1" connect="1" arrows="1" fold="1" page="0" pageScale="1" pageWidth="850" pageHeight="1100" math="0" shadow="1" extFonts="Open Sans^https://fonts.googleapis.com/css?family=Open+Sans">
      <root>
        <UserObject label="" animation="show Wq5InzKh79W2wBIpRcLx-78 fade&#xa;show cvLpx6p-RuNz1EM1y9mV-29 fade&#xa;wait 1000&#xa;&#xa;show Wq5InzKh79W2wBIpRcLx-1&#xa;wait 1000&#xa;show cvLpx6p-RuNz1EM1y9mV-24 fade&#xa;wait 1000&#xa;&#xa;show Wq5InzKh79W2wBIpRcLx-85 fade&#xa;show cvLpx6p-RuNz1EM1y9mV-22 fade&#xa;wait 1000&#xa;show Wq5InzKh79W2wBIpRcLx-2&#xa;wait 1000&#xa;show cvLpx6p-RuNz1EM1y9mV-23 fade&#xa;wait 1000&#xa;show Wq5InzKh79W2wBIpRcLx-3&#xa;wait 1000&#xa;show cvLpx6p-RuNz1EM1y9mV-30 fade&#xa;wait 1000&#xa;show Wq5InzKh79W2wBIpRcLx-4&#xa;wait 1000&#xa;show cvLpx6p-RuNz1EM1y9mV-25 fade&#xa;wait 1000&#xa;show cvLpx6p-RuNz1EM1y9mV-2 fade&#xa;wait 1000&#xa;show Wq5InzKh79W2wBIpRcLx-5&#xa;wait 1000&#xa;show Wq5InzKh79W2wBIpRcLx-6&#xa;wait 1000&#xa;show Wq5InzKh79W2wBIpRcLx-7&#xa;wait 1000&#xa;show cvLpx6p-RuNz1EM1y9mV-4 fade&#xa;wait 1000&#xa;show Wq5InzKh79W2wBIpRcLx-26&#xa;wait 1000&#xa;show Wq5InzKh79W2wBIpRcLx-20 fade&#xa;wait 1000&#xa;show Wq5InzKh79W2wBIpRcLx-21&#xa;wait 1000&#xa;show cvLpx6p-RuNz1EM1y9mV-8 fade&#xa;wait 1000&#xa;show cvLpx6p-RuNz1EM1y9mV-40 fade&#xa;show cvLpx6p-RuNz1EM1y9mV-9 fade&#xa;wait 1000&#xa;show hZzMzlVJMegq5i51UVMi-1&#xa;wait 1000&#xa;show qZqwFrgaYaiB9kYyUIb4-5&#xa;wait 1000&#xa;show cvLpx6p-RuNz1EM1y9mV-43&#xa;wait 1000&#xa;&#xa;&#xa;" id="0">
          <mxCell />
        </UserObject>
        <mxCell id="1" parent="0" />
        <mxCell id="cvLpx6p-RuNz1EM1y9mV-4" value="&lt;blockquote style=&quot;margin: 0 0 0 40px ; border: none ; padding: 0px&quot;&gt;&lt;span&gt;prod-archive-synced&lt;/span&gt;&lt;/blockquote&gt;" style="outlineConnect=0;fontColor=#232F3E;gradientColor=#945DF2;gradientDirection=north;fillColor=#5A30B5;strokeColor=#ffffff;dashed=0;verticalLabelPosition=bottom;verticalAlign=top;align=center;html=1;fontSize=13;fontStyle=0;aspect=fixed;shape=mxgraph.aws4.resourceIcon;resIcon=mxgraph.aws4.managed_streaming_for_kafka;shadow=1;labelPosition=center;spacingRight=0;fontFamily=Open Sans;spacingLeft=0;" parent="1" vertex="1">
          <mxGeometry x="144.235" y="940" width="48" height="48" as="geometry" />
        </mxCell>
        <mxCell id="cvLpx6p-RuNz1EM1y9mV-2" value="&lt;div&gt;&lt;b&gt;&lt;span style=&quot;font-size: 15px&quot;&gt;multiplexor-service&lt;/span&gt;&lt;/b&gt;&lt;/div&gt;" style="outlineConnect=0;fontColor=#000000;gradientColor=#945DF2;gradientDirection=north;fillColor=#5A30B5;strokeColor=#ffffff;dashed=0;verticalLabelPosition=top;verticalAlign=bottom;align=left;html=1;fontSize=15;fontStyle=1;aspect=fixed;shape=mxgraph.aws4.resourceIcon;resIcon=mxgraph.aws4.data_pipeline;fontFamily=Open Sans;shadow=1;labelPosition=right;spacingLeft=-30;" parent="1" vertex="1">
          <mxGeometry x="245.175" y="581" width="89.14" height="48" as="geometry" />
        </mxCell>
        <mxCell id="hzfEIbbCn_4-XFb5gGIH-16" value="" style="edgeStyle=orthogonalEdgeStyle;rounded=0;orthogonalLoop=1;jettySize=auto;html=1;fontSize=20;" parent="1" source="cvLpx6p-RuNz1EM1y9mV-23" target="cvLpx6p-RuNz1EM1y9mV-2" edge="1">
          <mxGeometry relative="1" as="geometry">
            <mxPoint x="840" y="253.0000000000001" as="targetPoint" />
          </mxGeometry>
        </mxCell>
        <mxCell id="cvLpx6p-RuNz1EM1y9mV-23" value="&lt;div style=&quot;font-size: 13px&quot;&gt;prod-&lt;br&gt;archive-new&lt;/div&gt;" style="outlineConnect=0;fontColor=#232F3E;gradientColor=#945DF2;gradientDirection=north;fillColor=#5A30B5;strokeColor=#ffffff;dashed=0;verticalLabelPosition=bottom;verticalAlign=top;align=center;html=1;fontSize=13;fontStyle=0;aspect=fixed;shape=mxgraph.aws4.resourceIcon;resIcon=mxgraph.aws4.managed_streaming_for_kafka;labelPosition=center;shadow=1;fontFamily=Open Sans;" parent="1" vertex="1">
          <mxGeometry x="147.25" y="580" width="50" height="50" as="geometry" />
        </mxCell>
        <mxCell id="Wq5InzKh79W2wBIpRcLx-2" value="" style="edgeStyle=orthogonalEdgeStyle;rounded=0;orthogonalLoop=1;jettySize=auto;html=1;" parent="1" source="cvLpx6p-RuNz1EM1y9mV-24" target="hzfEIbbCn_4-XFb5gGIH-3" edge="1">
          <mxGeometry relative="1" as="geometry" />
        </mxCell>
        <mxCell id="hzfEIbbCn_4-XFb5gGIH-8" value="" style="edgeStyle=orthogonalEdgeStyle;rounded=0;orthogonalLoop=1;jettySize=auto;html=1;" parent="1" source="cvLpx6p-RuNz1EM1y9mV-24" target="hzfEIbbCn_4-XFb5gGIH-7" edge="1">
          <mxGeometry relative="1" as="geometry" />
        </mxCell>
        <mxCell id="dzDXNNR-nJhao6QNLTsh-1" value="" style="edgeStyle=orthogonalEdgeStyle;rounded=0;orthogonalLoop=1;jettySize=auto;html=1;" parent="1" source="cvLpx6p-RuNz1EM1y9mV-24" target="hzfEIbbCn_4-XFb5gGIH-3" edge="1">
          <mxGeometry relative="1" as="geometry" />
        </mxCell>
        <UserObject label="Ingress" id="cvLpx6p-RuNz1EM1y9mV-24">
          <mxCell style="outlineConnect=0;fontColor=#000000;gradientColor=#945DF2;gradientDirection=north;fillColor=#5A30B5;strokeColor=#FFFFFF;dashed=0;verticalLabelPosition=bottom;verticalAlign=top;align=center;html=1;fontSize=13;fontStyle=0;aspect=fixed;shape=mxgraph.aws4.resourceIcon;resIcon=mxgraph.aws4.managed_services;fontFamily=Open Sans;shadow=1;labelBorderColor=none;labelBackgroundColor=none;" parent="1" vertex="1">
            <mxGeometry x="142.49" y="228" width="59.52" height="50" as="geometry" />
          </mxCell>
        </UserObject>
        <mxCell id="Wq5InzKh79W2wBIpRcLx-83" value="" style="shape=image;imageAspect=0;aspect=fixed;verticalLabelPosition=bottom;verticalAlign=top;rounded=0;dashed=1;labelBackgroundColor=none;strokeColor=#3399FF;strokeWidth=2;fillColor=#ffffff;fontColor=#0066CC;align=center;html=1;image=https://static.redhat.com/libs/redhat/brand-assets/latest/corp/logo--hat-only.svg;" parent="1" vertex="1">
          <mxGeometry width="70" as="geometry" />
        </mxCell>
        <mxCell id="8Mudrr2gFht6RSvs2BrG-41" value="insights archive" style="edgeStyle=orthogonalEdgeStyle;rounded=0;orthogonalLoop=1;jettySize=auto;html=1;labelBackgroundColor=none;fontSize=12;fontColor=#000000;labelPosition=center;verticalLabelPosition=bottom;align=center;verticalAlign=top;" parent="1" source="8Mudrr2gFht6RSvs2BrG-1" target="cvLpx6p-RuNz1EM1y9mV-24" edge="1">
          <mxGeometry relative="1" as="geometry">
            <mxPoint x="150" y="253.1199999999999" as="targetPoint" />
            <Array as="points" />
          </mxGeometry>
        </mxCell>
        <mxCell id="8Mudrr2gFht6RSvs2BrG-1" value="Customer&#39;s cluster" style="outlineConnect=0;fontColor=#232F3E;gradientColor=none;fillColor=#5A30B5;strokeColor=none;dashed=0;verticalLabelPosition=bottom;verticalAlign=top;align=center;html=1;fontSize=13;fontStyle=0;aspect=fixed;pointerEvents=1;shape=mxgraph.aws4.hdfs_cluster;" parent="1" vertex="1">
          <mxGeometry x="107.25" y="10" width="130" height="130" as="geometry" />
        </mxCell>
        <mxCell id="hzfEIbbCn_4-XFb5gGIH-10" value="" style="edgeStyle=orthogonalEdgeStyle;rounded=0;orthogonalLoop=1;jettySize=auto;html=1;" parent="1" source="hzfEIbbCn_4-XFb5gGIH-3" target="hzfEIbbCn_4-XFb5gGIH-9" edge="1">
          <mxGeometry relative="1" as="geometry" />
        </mxCell>
        <mxCell id="hzfEIbbCn_4-XFb5gGIH-3" value="AWS SQS" style="outlineConnect=0;fontColor=#232F3E;gradientColor=none;strokeColor=#ffffff;fillColor=#232F3E;dashed=0;verticalLabelPosition=middle;verticalAlign=bottom;align=center;html=1;whiteSpace=wrap;fontSize=10;fontStyle=1;spacing=3;shape=mxgraph.aws4.productIcon;prIcon=mxgraph.aws4.sqs;" parent="1" vertex="1">
          <mxGeometry x="132.25" y="329.99999999999994" width="80" height="100" as="geometry" />
        </mxCell>
        <mxCell id="hzfEIbbCn_4-XFb5gGIH-35" value="" style="edgeStyle=orthogonalEdgeStyle;rounded=0;orthogonalLoop=1;jettySize=auto;html=1;fontSize=20;" parent="1" source="hzfEIbbCn_4-XFb5gGIH-7" target="cvLpx6p-RuNz1EM1y9mV-2" edge="1">
          <mxGeometry relative="1" as="geometry">
            <mxPoint x="278.32604894655697" y="146.385" as="targetPoint" />
            <Array as="points">
              <mxPoint x="286" y="280" />
              <mxPoint x="286" y="280" />
            </Array>
          </mxGeometry>
        </mxCell>
        <mxCell id="hzfEIbbCn_4-XFb5gGIH-7" value="AWS S3 Bucket" style="outlineConnect=0;fontColor=#000000;gradientColor=none;fillColor=#CC0000;strokeColor=none;dashed=0;verticalLabelPosition=top;verticalAlign=bottom;align=center;html=1;fontSize=13;fontStyle=0;aspect=fixed;pointerEvents=1;shape=mxgraph.aws4.bucket_with_objects;fontFamily=Open Sans;labelPosition=center;shadow=0;noLabel=0;container=0;" parent="1" vertex="1">
          <mxGeometry x="264" y="226.615" width="51.49" height="52.77" as="geometry" />
        </mxCell>
        <mxCell id="hzfEIbbCn_4-XFb5gGIH-14" value="" style="edgeStyle=orthogonalEdgeStyle;rounded=0;orthogonalLoop=1;jettySize=auto;html=1;fontSize=20;fontStyle=1" parent="1" source="hzfEIbbCn_4-XFb5gGIH-9" target="cvLpx6p-RuNz1EM1y9mV-23" edge="1">
          <mxGeometry relative="1" as="geometry">
            <mxPoint x="579.1399999999999" y="253" as="sourcePoint" />
            <mxPoint x="660" y="253" as="targetPoint" />
          </mxGeometry>
        </mxCell>
        <mxCell id="hzfEIbbCn_4-XFb5gGIH-9" value="&lt;b&gt;&lt;span style=&quot;font-size: 15px&quot;&gt;SQS Listener&lt;/span&gt;&lt;/b&gt;" style="outlineConnect=0;fontColor=#000000;gradientColor=#945DF2;gradientDirection=north;fillColor=#5A30B5;strokeColor=#ffffff;dashed=0;verticalLabelPosition=top;verticalAlign=bottom;align=center;html=1;fontSize=15;fontStyle=1;aspect=fixed;shape=mxgraph.aws4.resourceIcon;resIcon=mxgraph.aws4.data_pipeline;fontFamily=Open Sans;shadow=1;labelPosition=center;" parent="1" vertex="1">
          <mxGeometry x="127.68" y="480" width="89.14" height="48" as="geometry" />
        </mxCell>
        <mxCell id="hzfEIbbCn_4-XFb5gGIH-25" value="" style="edgeStyle=orthogonalEdgeStyle;rounded=0;orthogonalLoop=1;jettySize=auto;html=1;fontSize=20;" parent="1" source="hzfEIbbCn_4-XFb5gGIH-19" target="hzfEIbbCn_4-XFb5gGIH-22" edge="1">
          <mxGeometry relative="1" as="geometry" />
        </mxCell>
        <mxCell id="hzfEIbbCn_4-XFb5gGIH-19" value="&lt;b&gt;&lt;span style=&quot;font-size: 15px&quot;&gt;rules service&lt;/span&gt;&lt;/b&gt;" style="outlineConnect=0;fontColor=#000000;gradientColor=#945DF2;gradientDirection=north;fillColor=#5A30B5;strokeColor=#ffffff;dashed=0;verticalLabelPosition=top;verticalAlign=bottom;align=center;html=1;fontSize=15;fontStyle=1;aspect=fixed;shape=mxgraph.aws4.resourceIcon;resIcon=mxgraph.aws4.data_pipeline;fontFamily=Open Sans;shadow=1;labelPosition=center;" parent="1" vertex="1">
          <mxGeometry x="127.68" y="1095" width="89.14" height="48" as="geometry" />
        </mxCell>
        <mxCell id="hzfEIbbCn_4-XFb5gGIH-21" value="" style="edgeStyle=orthogonalEdgeStyle;rounded=1;comic=0;jumpStyle=none;orthogonalLoop=1;jettySize=auto;html=1;shadow=0;startFill=1;endFill=1;fontColor=#000000;labelBackgroundColor=#f6f6f6;fontSize=20;fontStyle=1" parent="1" source="cvLpx6p-RuNz1EM1y9mV-4" edge="1">
          <mxGeometry relative="1" as="geometry">
            <mxPoint x="163.98" y="1082" as="targetPoint" />
            <mxPoint x="833.6466666666665" y="1198" as="sourcePoint" />
            <Array as="points">
              <mxPoint x="163.98" y="1014" />
            </Array>
          </mxGeometry>
        </mxCell>
        <mxCell id="jBl5X6R8nobQf4J1Eu6D-18" value="" style="edgeStyle=orthogonalEdgeStyle;rounded=0;orthogonalLoop=1;jettySize=auto;html=1;" parent="1" source="hzfEIbbCn_4-XFb5gGIH-22" target="jBl5X6R8nobQf4J1Eu6D-17" edge="1">
          <mxGeometry relative="1" as="geometry" />
        </mxCell>
        <mxCell id="jBl5X6R8nobQf4J1Eu6D-30" value="" style="edgeStyle=orthogonalEdgeStyle;rounded=0;orthogonalLoop=1;jettySize=auto;html=1;" parent="1" source="hzfEIbbCn_4-XFb5gGIH-22" target="66jfKdfOWFosxA7JYabk-3" edge="1">
          <mxGeometry relative="1" as="geometry" />
        </mxCell>
        <mxCell id="hzfEIbbCn_4-XFb5gGIH-22" value="&lt;blockquote style=&quot;margin: 0 0 0 40px ; border: none ; padding: 0px&quot;&gt;prod-insights-rules-results&lt;br&gt;&lt;/blockquote&gt;" style="outlineConnect=0;fontColor=#232F3E;gradientColor=#945DF2;gradientDirection=north;fillColor=#5A30B5;strokeColor=#ffffff;dashed=0;verticalLabelPosition=top;verticalAlign=bottom;align=center;html=1;fontSize=13;fontStyle=0;aspect=fixed;shape=mxgraph.aws4.resourceIcon;resIcon=mxgraph.aws4.managed_streaming_for_kafka;shadow=1;labelPosition=center;spacingRight=0;fontFamily=Open Sans;" parent="1" vertex="1">
          <mxGeometry x="148.25" y="1190" width="48" height="48" as="geometry" />
        </mxCell>
        <mxCell id="66jfKdfOWFosxA7JYabk-10" value="" style="edgeStyle=orthogonalEdgeStyle;rounded=1;orthogonalLoop=1;jettySize=auto;html=1;shadow=0;comic=0;strokeColor=default;align=center;verticalAlign=middle;fontFamily=Helvetica;fontSize=20;fontColor=#000000;fontStyle=1;labelBackgroundColor=#f6f6f6;jumpStyle=none;startFill=1;endArrow=classic;endFill=1;" parent="1" source="66jfKdfOWFosxA7JYabk-3" target="jBl5X6R8nobQf4J1Eu6D-19" edge="1">
          <mxGeometry relative="1" as="geometry">
            <mxPoint x="172.255" y="1395" as="targetPoint" />
          </mxGeometry>
        </mxCell>
        <UserObject label="&lt;b&gt;Parquet Factory&lt;/b&gt;" id="66jfKdfOWFosxA7JYabk-3">
          <mxCell style="outlineConnect=0;fontColor=#000000;gradientColor=#945DF2;gradientDirection=north;fillColor=#5A30B5;strokeColor=#FFFFFF;dashed=0;verticalLabelPosition=top;verticalAlign=bottom;align=center;html=1;fontSize=13;fontStyle=0;aspect=fixed;shape=mxgraph.aws4.resourceIcon;resIcon=mxgraph.aws4.managed_services;fontFamily=Open Sans;shadow=1;labelBorderColor=none;labelBackgroundColor=none;labelPosition=center;" parent="1" vertex="1">
            <mxGeometry x="142.495" y="1284" width="59.52" height="50" as="geometry" />
          </mxCell>
        </UserObject>
        <mxCell id="jBl5X6R8nobQf4J1Eu6D-16" value="" style="edgeStyle=orthogonalEdgeStyle;rounded=0;orthogonalLoop=1;jettySize=auto;html=1;" parent="1" source="jBl5X6R8nobQf4J1Eu6D-4" target="cvLpx6p-RuNz1EM1y9mV-4" edge="1">
          <mxGeometry relative="1" as="geometry" />
        </mxCell>
        <mxCell id="jBl5X6R8nobQf4J1Eu6D-22" value="" style="edgeStyle=orthogonalEdgeStyle;rounded=1;orthogonalLoop=1;jettySize=auto;html=1;shadow=0;comic=0;strokeColor=default;align=center;verticalAlign=middle;fontFamily=Helvetica;fontSize=20;fontColor=#000000;fontStyle=1;labelBackgroundColor=#f6f6f6;jumpStyle=none;startFill=1;endArrow=classic;endFill=1;" parent="1" source="jBl5X6R8nobQf4J1Eu6D-4" target="jBl5X6R8nobQf4J1Eu6D-21" edge="1">
          <mxGeometry relative="1" as="geometry">
            <Array as="points">
              <mxPoint x="49" y="870" />
            </Array>
          </mxGeometry>
        </mxCell>
        <mxCell id="jBl5X6R8nobQf4J1Eu6D-4" value="&lt;div&gt;&lt;b&gt;&lt;span style=&quot;font-size: 15px&quot;&gt;archive-sync&lt;/span&gt;&lt;/b&gt;&lt;/div&gt;" style="outlineConnect=0;fontColor=#000000;gradientColor=#945DF2;gradientDirection=north;fillColor=#5A30B5;strokeColor=#ffffff;dashed=0;verticalLabelPosition=top;verticalAlign=bottom;align=left;html=1;fontSize=15;fontStyle=1;aspect=fixed;shape=mxgraph.aws4.resourceIcon;resIcon=mxgraph.aws4.data_pipeline;fontFamily=Open Sans;shadow=1;labelPosition=right;spacingLeft=-30;" parent="1" vertex="1">
          <mxGeometry x="123.105" y="830" width="89.14" height="48" as="geometry" />
        </mxCell>
        <mxCell id="jBl5X6R8nobQf4J1Eu6D-14" value="" style="edgeStyle=orthogonalEdgeStyle;rounded=0;orthogonalLoop=1;jettySize=auto;html=1;" parent="1" source="jBl5X6R8nobQf4J1Eu6D-6" target="jBl5X6R8nobQf4J1Eu6D-4" edge="1">
          <mxGeometry relative="1" as="geometry" />
        </mxCell>
        <mxCell id="jBl5X6R8nobQf4J1Eu6D-6" value="&lt;blockquote style=&quot;margin: 0 0 0 40px ; border: none ; padding: 0px&quot;&gt;&lt;span&gt;prod-io-archive-new&lt;/span&gt;&lt;/blockquote&gt;" style="outlineConnect=0;fontColor=#232F3E;gradientColor=#945DF2;gradientDirection=north;fillColor=#5A30B5;strokeColor=#ffffff;dashed=0;verticalLabelPosition=bottom;verticalAlign=top;align=center;html=1;fontSize=13;fontStyle=0;aspect=fixed;shape=mxgraph.aws4.resourceIcon;resIcon=mxgraph.aws4.managed_streaming_for_kafka;shadow=1;labelPosition=center;spacingRight=0;fontFamily=Open Sans;spacingLeft=0;" parent="1" vertex="1">
          <mxGeometry x="144.22500000000002" y="720" width="48" height="48" as="geometry" />
        </mxCell>
        <mxCell id="jBl5X6R8nobQf4J1Eu6D-15" value="" style="edgeStyle=orthogonalEdgeStyle;rounded=0;orthogonalLoop=1;jettySize=auto;html=1;" parent="1" source="jBl5X6R8nobQf4J1Eu6D-7" target="jBl5X6R8nobQf4J1Eu6D-13" edge="1">
          <mxGeometry relative="1" as="geometry" />
        </mxCell>
        <mxCell id="jBl5X6R8nobQf4J1Eu6D-7" value="&lt;blockquote style=&quot;margin: 0 0 0 40px ; border: none ; padding: 0px&quot;&gt;&lt;span&gt;prod-ols-archive-new&lt;/span&gt;&lt;/blockquote&gt;" style="outlineConnect=0;fontColor=#232F3E;gradientColor=#945DF2;gradientDirection=north;fillColor=#5A30B5;strokeColor=#ffffff;dashed=0;verticalLabelPosition=bottom;verticalAlign=top;align=center;html=1;fontSize=13;fontStyle=0;aspect=fixed;shape=mxgraph.aws4.resourceIcon;resIcon=mxgraph.aws4.managed_streaming_for_kafka;shadow=1;labelPosition=center;spacingRight=0;fontFamily=Open Sans;spacingLeft=0;" parent="1" vertex="1">
          <mxGeometry x="389.995" y="720" width="48" height="48" as="geometry" />
        </mxCell>
        <mxCell id="jBl5X6R8nobQf4J1Eu6D-10" value="" style="endArrow=classic;html=1;rounded=1;edgeStyle=orthogonalEdgeStyle;shadow=0;comic=0;strokeColor=default;align=center;verticalAlign=middle;fontFamily=Helvetica;fontSize=20;fontColor=#000000;fontStyle=1;labelBackgroundColor=#f6f6f6;jumpStyle=none;startFill=1;endFill=1;" parent="1" source="cvLpx6p-RuNz1EM1y9mV-2" target="jBl5X6R8nobQf4J1Eu6D-6" edge="1">
          <mxGeometry width="50" height="50" relative="1" as="geometry">
            <mxPoint x="230" y="840" as="sourcePoint" />
            <mxPoint x="280" y="790" as="targetPoint" />
            <Array as="points">
              <mxPoint x="290" y="744" />
            </Array>
          </mxGeometry>
        </mxCell>
        <mxCell id="jBl5X6R8nobQf4J1Eu6D-11" value="" style="endArrow=classic;html=1;rounded=1;shadow=0;comic=0;strokeColor=default;align=center;verticalAlign=middle;fontFamily=Helvetica;fontSize=20;fontColor=#000000;fontStyle=1;labelBackgroundColor=#f6f6f6;jumpStyle=none;startFill=1;endFill=1;edgeStyle=orthogonalEdgeStyle;" parent="1" source="cvLpx6p-RuNz1EM1y9mV-2" target="jBl5X6R8nobQf4J1Eu6D-7" edge="1">
          <mxGeometry width="50" height="50" relative="1" as="geometry">
            <mxPoint x="230" y="840" as="sourcePoint" />
            <mxPoint x="280" y="790" as="targetPoint" />
            <Array as="points">
              <mxPoint x="290" y="744" />
            </Array>
          </mxGeometry>
        </mxCell>
        <mxCell id="jBl5X6R8nobQf4J1Eu6D-28" value="" style="edgeStyle=orthogonalEdgeStyle;rounded=0;orthogonalLoop=1;jettySize=auto;html=1;" parent="1" source="jBl5X6R8nobQf4J1Eu6D-13" target="jBl5X6R8nobQf4J1Eu6D-27" edge="1">
          <mxGeometry relative="1" as="geometry" />
        </mxCell>
        <mxCell id="jBl5X6R8nobQf4J1Eu6D-13" value="&lt;div&gt;&lt;b&gt;&lt;span style=&quot;font-size: 15px&quot;&gt;archive-sync-ols&lt;/span&gt;&lt;/b&gt;&lt;/div&gt;" style="outlineConnect=0;fontColor=#000000;gradientColor=#945DF2;gradientDirection=north;fillColor=#5A30B5;strokeColor=#ffffff;dashed=0;verticalLabelPosition=top;verticalAlign=bottom;align=left;html=1;fontSize=15;fontStyle=1;aspect=fixed;shape=mxgraph.aws4.resourceIcon;resIcon=mxgraph.aws4.data_pipeline;fontFamily=Open Sans;shadow=1;labelPosition=right;spacingLeft=-30;" parent="1" vertex="1">
          <mxGeometry x="369.425" y="830" width="89.14" height="48" as="geometry" />
        </mxCell>
        <mxCell id="jBl5X6R8nobQf4J1Eu6D-20" value="" style="edgeStyle=orthogonalEdgeStyle;rounded=0;orthogonalLoop=1;jettySize=auto;html=1;" parent="1" source="jBl5X6R8nobQf4J1Eu6D-17" target="jBl5X6R8nobQf4J1Eu6D-19" edge="1">
          <mxGeometry relative="1" as="geometry" />
        </mxCell>
        <mxCell id="jBl5X6R8nobQf4J1Eu6D-17" value="&lt;b&gt;&lt;span style=&quot;font-size: 15px&quot;&gt;rules uploader service&lt;/span&gt;&lt;/b&gt;" style="outlineConnect=0;fontColor=#000000;gradientColor=#945DF2;gradientDirection=north;fillColor=#5A30B5;strokeColor=#ffffff;dashed=0;verticalLabelPosition=top;verticalAlign=bottom;align=center;html=1;fontSize=15;fontStyle=1;aspect=fixed;shape=mxgraph.aws4.resourceIcon;resIcon=mxgraph.aws4.data_pipeline;fontFamily=Open Sans;shadow=1;labelPosition=center;" parent="1" vertex="1">
          <mxGeometry x="311.47" y="1190" width="89.14" height="48" as="geometry" />
        </mxCell>
        <mxCell id="jBl5X6R8nobQf4J1Eu6D-19" value="Ceph bucket" style="outlineConnect=0;fontColor=#000000;gradientColor=none;fillColor=#006100;strokeColor=none;dashed=0;verticalLabelPosition=top;verticalAlign=bottom;align=center;html=1;fontSize=13;fontStyle=0;aspect=fixed;pointerEvents=1;shape=mxgraph.aws4.bucket_with_objects;fontFamily=Open Sans;labelPosition=center;shadow=0;noLabel=0;container=0;" parent="1" vertex="1">
          <mxGeometry x="490" y="1188" width="51.49" height="52.77" as="geometry" />
        </mxCell>
        <mxCell id="jBl5X6R8nobQf4J1Eu6D-21" value="Ceph bucket" style="outlineConnect=0;fontColor=#000000;gradientColor=none;fillColor=#006100;strokeColor=none;dashed=0;verticalLabelPosition=top;verticalAlign=bottom;align=center;html=1;fontSize=13;fontStyle=0;aspect=fixed;pointerEvents=1;shape=mxgraph.aws4.bucket_with_objects;fontFamily=Open Sans;labelPosition=center;shadow=0;noLabel=0;container=0;" parent="1" vertex="1">
          <mxGeometry x="23.50999999999999" y="930" width="51.49" height="52.77" as="geometry" />
        </mxCell>
        <mxCell id="jBl5X6R8nobQf4J1Eu6D-23" value="AWS S3 Bucket" style="outlineConnect=0;fontColor=#000000;gradientColor=none;fillColor=#CC0000;strokeColor=none;dashed=0;verticalLabelPosition=top;verticalAlign=bottom;align=center;html=1;fontSize=13;fontStyle=0;aspect=fixed;pointerEvents=1;shape=mxgraph.aws4.bucket_with_objects;fontFamily=Open Sans;labelPosition=center;shadow=0;noLabel=0;container=0;" parent="1" vertex="1">
          <mxGeometry x="26" y="720.005" width="51.49" height="52.77" as="geometry" />
        </mxCell>
        <mxCell id="jBl5X6R8nobQf4J1Eu6D-24" value="" style="endArrow=classic;html=1;rounded=1;edgeStyle=orthogonalEdgeStyle;shadow=0;comic=0;strokeColor=default;align=center;verticalAlign=middle;fontFamily=Helvetica;fontSize=20;fontColor=#000000;fontStyle=1;labelBackgroundColor=#f6f6f6;jumpStyle=none;startFill=1;endFill=1;" parent="1" source="jBl5X6R8nobQf4J1Eu6D-23" target="jBl5X6R8nobQf4J1Eu6D-4" edge="1">
          <mxGeometry width="50" height="50" relative="1" as="geometry">
            <mxPoint x="160" y="590" as="sourcePoint" />
            <mxPoint x="210" y="540" as="targetPoint" />
            <Array as="points">
              <mxPoint x="50" y="840" />
            </Array>
          </mxGeometry>
        </mxCell>
        <mxCell id="jBl5X6R8nobQf4J1Eu6D-26" value="" style="edgeStyle=orthogonalEdgeStyle;rounded=0;orthogonalLoop=1;jettySize=auto;html=1;" parent="1" source="jBl5X6R8nobQf4J1Eu6D-25" target="jBl5X6R8nobQf4J1Eu6D-13" edge="1">
          <mxGeometry relative="1" as="geometry" />
        </mxCell>
        <mxCell id="jBl5X6R8nobQf4J1Eu6D-25" value="AWS S3 Bucket" style="outlineConnect=0;fontColor=#000000;gradientColor=none;fillColor=#CC0000;strokeColor=none;dashed=0;verticalLabelPosition=top;verticalAlign=bottom;align=center;html=1;fontSize=13;fontStyle=0;aspect=fixed;pointerEvents=1;shape=mxgraph.aws4.bucket_with_objects;fontFamily=Open Sans;labelPosition=center;shadow=0;noLabel=0;container=0;" parent="1" vertex="1">
          <mxGeometry x="570" y="827.615" width="51.49" height="52.77" as="geometry" />
        </mxCell>
        <mxCell id="jBl5X6R8nobQf4J1Eu6D-27" value="OLS Ceph bucket" style="outlineConnect=0;dashed=0;verticalLabelPosition=top;verticalAlign=bottom;align=left;html=1;fontSize=13;fontStyle=0;aspect=fixed;pointerEvents=1;shape=mxgraph.aws4.bucket_with_objects;fontFamily=Open Sans;labelPosition=right;shadow=0;noLabel=0;container=0;fillColor=#3333FF;strokeColor=#009999;" parent="1" vertex="1">
          <mxGeometry x="389" y="935.23" width="51.49" height="52.77" as="geometry" />
        </mxCell>
      </root>
    </mxGraphModel>
  </diagram>
</mxfile>
